<svg width="28" height="28" viewBox="0 0 28 28" fill="none" xmlns="http://www.w3.org/2000/svg">
<g opacity="0.25">
<path d="M24.5 23.6027V12.396C24.5 11.8437 24.0523 11.396 23.5 11.396H18.4322C17.9009 11.396 17.4663 11.8104 17.4341 12.3336V4.39734C17.4341 3.84505 16.9864 3.39734 16.4341 3.39734H11.3662C10.8139 3.39734 10.3662 3.84505 10.3662 4.39734V18.6027C10.3662 18.0504 9.91845 17.6027 9.36616 17.6027H4.5C3.94772 17.6027 3.5 18.0504 3.5 18.6027V23.6027C3.5 24.155 3.94772 24.6027 4.5 24.6027H10.3662H17.4341H23.5C24.0523 24.6027 24.5 24.155 24.5 23.6027Z" fill="white" fill-opacity="0.1"/>
<path d="M17.4341 24.6027V4.39734C17.4341 3.84505 16.9864 3.39734 16.4341 3.39734H11.3662C10.8139 3.39734 10.3662 3.84505 10.3662 4.39734V24.6027M17.4341 24.6027L17.4322 12.3962C17.4321 11.8438 17.8799 11.396 18.4322 11.396H23.5C24.0523 11.396 24.5 11.8437 24.5 12.396V23.6027C24.5 24.155 24.0523 24.6027 23.5 24.6027H17.4341ZM17.4341 24.6027H10.3662M10.3662 24.6027V18.6027C10.3662 18.0504 9.91845 17.6027 9.36616 17.6027H4.5C3.94772 17.6027 3.5 18.0504 3.5 18.6027V23.6027C3.5 24.155 3.94771 24.6027 4.5 24.6027H10.3662Z" stroke="white" stroke-linecap="round" stroke-linejoin="round"/>
</g>
</svg>
