<svg width="363" height="45" viewBox="0 0 363 45" fill="none" xmlns="http://www.w3.org/2000/svg">
<path d="M2 45H361C361 27.1924 361 18.2887 356.508 12.0205C354.98 9.88775 353.112 8.02001 350.979 6.49168C344.711 2 335.808 2 318 2H45C27.1924 2 18.2887 2 12.0205 6.49168C9.88775 8.02001 8.02001 9.88775 6.49168 12.0205C2 18.2887 2 27.1924 2 45Z" fill="white" fill-opacity="0.025"/>
<path d="M361.75 45.75V45C361.75 36.1127 361.751 29.3872 361.185 24.1025C360.634 18.97 359.541 15.1136 357.335 11.8936L357.118 11.584C355.641 9.52195 353.855 7.69999 351.825 6.18164L351.416 5.88184C348.134 3.52992 344.196 2.38365 338.897 1.81543C333.613 1.24869 326.887 1.25 318 1.25H45C36.1127 1.25 29.3872 1.24869 24.1025 1.81543C18.97 2.3659 15.1136 3.45899 11.8936 5.66504L11.584 5.88184C9.52194 7.35947 7.69999 9.14507 6.18164 11.1748L5.88184 11.584C3.52993 14.8662 2.38365 18.8045 1.81543 24.1025C1.24869 29.3872 1.25 36.1127 1.25 45V45.75H361.75Z" stroke="url(#paint0_linear_25_209)" stroke-opacity="0.2" stroke-width="1.5"/>
<defs>
<linearGradient id="paint0_linear_25_209" x1="181.5" y1="2" x2="181.5" y2="45" gradientUnits="userSpaceOnUse">
<stop stop-color="white"/>
<stop offset="1" stop-color="white" stop-opacity="0"/>
</linearGradient>
</defs>
</svg>
