<svg width="28" height="28" viewBox="0 0 28 28" fill="none" xmlns="http://www.w3.org/2000/svg">
<g opacity="0.25">
<path d="M2.79999 7.00001C2.79999 5.45361 4.05359 4.20001 5.59999 4.20001H22.4C23.9464 4.20001 25.2 5.45361 25.2 7.00001V16.8C25.2 18.3464 23.9464 19.6 22.4 19.6H5.59999C4.05359 19.6 2.79999 18.3464 2.79999 16.8V7.00001Z" fill="white" fill-opacity="0.1"/>
<path d="M14 19.6V22.4M9.79999 23.8H18.2M5.59999 19.6H22.4C23.9464 19.6 25.2 18.3464 25.2 16.8V7.00001C25.2 5.45361 23.9464 4.20001 22.4 4.20001H5.59999C4.05359 4.20001 2.79999 5.45361 2.79999 7.00001V16.8C2.79999 18.3464 4.05359 19.6 5.59999 19.6Z" stroke="white" stroke-linecap="round" stroke-linejoin="round"/>
</g>
</svg>
