<svg width="708" height="628" viewBox="0 0 708 628" fill="none" xmlns="http://www.w3.org/2000/svg">
<path d="M354.75 0C443.637 0.000100394 488.18 0.0360506 523.904 12.9092C584.987 34.9203 633.08 83.013 655.091 144.096C667.964 179.82 668 224.363 668 313.25H708V314.75H668C668 403.637 667.964 448.18 655.091 483.904L654.57 485.333C632.328 545.737 584.51 593.252 523.904 615.091L522.218 615.687C486.773 627.965 442.244 627.999 354.75 627.999V628H353.25V627.999C265.756 627.999 221.227 627.965 185.782 615.687L184.096 615.091C123.49 593.252 75.6723 545.737 53.4297 485.333L52.9092 483.904C40.0361 448.18 40.0001 403.637 40 314.75H0V313.25H40C40.0001 225.756 40.035 181.227 52.3135 145.782L52.9092 144.096C74.7484 83.49 122.263 35.6723 182.667 13.4297L184.096 12.9092C219.82 0.0360508 264.363 0.000100395 353.25 0H354.75ZM127.5 314.75V316.057H126.001C126.001 315.622 126 315.187 126 314.75H41.5C41.5002 403.764 41.558 447.979 54.3203 483.396C76.1799 544.058 123.942 591.82 184.604 613.68C220.021 626.442 264.236 626.499 353.25 626.499V541.999C352.813 541.999 352.378 541.999 351.943 541.999V540.5H353.25V456H340L329.035 455.995C276.376 455.927 248.781 454.847 231.187 437.69L230.745 437.255C213.172 419.681 212.074 392.066 212.005 338.965L212 328V314.75H127.5ZM582 314.75C582 315.187 581.999 315.622 581.999 316.057H580.5V314.75H496V328L495.995 338.965C495.926 392.066 494.828 419.681 477.255 437.255L476.813 437.69C459.219 454.847 431.624 455.927 378.965 455.995L368 456H354.75V540.5H356.057V541.999C355.622 541.999 355.187 541.999 354.75 541.999V626.499C443.764 626.499 487.979 626.442 523.396 613.68C584.058 591.82 631.82 544.058 653.68 483.396C666.442 447.979 666.5 403.764 666.5 314.75H582ZM347.878 540.5V541.998C346.513 541.998 345.16 541.997 343.816 541.996V540.499C345.16 540.5 346.513 540.5 347.878 540.5ZM364.184 541.996C362.84 541.997 361.487 541.998 360.122 541.998V540.5C361.487 540.5 362.84 540.5 364.184 540.499V541.996ZM339.751 540.497L339.75 541.995C338.384 541.994 337.03 541.993 335.687 541.991L335.688 540.493C337.032 540.495 338.386 540.496 339.751 540.497ZM372.312 541.991C370.969 541.993 369.615 541.994 368.249 541.995V540.497C369.614 540.496 370.968 540.495 372.312 540.493L372.312 541.991ZM331.627 540.486L331.624 541.984C330.256 541.982 328.9 541.978 327.555 541.975L327.56 540.477C328.904 540.48 330.26 540.484 331.627 540.486ZM380.444 541.975C379.099 541.978 377.743 541.982 376.375 541.984L376.373 540.486C377.74 540.484 379.096 540.48 380.44 540.477L380.444 541.975ZM323.507 540.464L323.501 541.962C322.13 541.957 320.771 541.949 319.424 541.942L319.432 540.445C320.778 540.452 322.136 540.459 323.507 540.464ZM388.575 541.942C387.228 541.949 385.869 541.957 384.498 541.962L384.493 540.464C385.864 540.459 387.222 540.452 388.568 540.445L388.575 541.942ZM315.393 540.422L315.383 541.921C314.007 541.912 312.645 541.9 311.295 541.889L311.307 540.392C312.656 540.403 314.018 540.413 315.393 540.422ZM396.699 541.142L396.704 541.889C395.354 541.9 393.992 541.912 392.616 541.921L392.607 540.422C393.982 540.413 395.344 540.403 396.693 540.392L396.699 541.142ZM307.264 540.354L307.248 541.853C305.876 541.838 304.517 541.821 303.171 541.804L303.19 540.308C304.535 540.325 305.893 540.34 307.264 540.354ZM404.828 541.804C403.482 541.821 402.123 541.838 400.751 541.853L400.736 540.354C402.107 540.34 403.465 540.325 404.81 540.308L404.828 541.804ZM299.131 540.251L299.107 541.749C297.744 541.728 296.395 541.706 295.059 541.682L295.086 540.183C296.42 540.207 297.769 540.23 299.131 540.251ZM412.94 541.682C411.604 541.706 410.255 541.728 408.892 541.749L408.869 540.251C410.231 540.23 411.58 540.207 412.914 540.183L412.94 541.682ZM291.01 540.101L290.992 540.85L290.993 540.851L290.977 541.6C289.612 541.57 288.26 541.537 286.924 541.502L286.963 540.004C288.297 540.039 289.646 540.071 291.01 540.101ZM421.075 541.502C419.739 541.537 418.388 541.57 417.023 541.6L416.99 540.101C418.354 540.071 419.703 540.039 421.037 540.004L421.075 541.502ZM282.909 539.89L282.864 541.388C281.491 541.346 280.133 541.302 278.79 541.254L278.843 539.756C280.183 539.803 281.538 539.848 282.909 539.89ZM429.184 540.506L429.209 541.254C427.866 541.302 426.509 541.346 425.136 541.388L425.133 541.249L425.113 540.64L425.091 539.89C426.462 539.848 427.817 539.803 429.157 539.756L429.184 540.506ZM274.799 539.602L274.768 540.35L274.769 540.351L274.746 540.895L274.737 541.098C273.37 541.041 272.02 540.982 270.685 540.918L270.756 539.422C272.087 539.485 273.435 539.545 274.799 539.602ZM437.314 540.918C435.979 540.982 434.629 541.041 433.262 541.098L433.254 540.895L433.201 539.602C434.565 539.545 435.913 539.485 437.244 539.422L437.314 540.918ZM262.649 538.976C263.981 539.06 265.329 539.139 266.694 539.214L266.612 540.71C265.243 540.635 263.891 540.555 262.556 540.471L262.649 538.976ZM445.397 539.725L445.443 540.471C444.108 540.555 442.756 540.635 441.387 540.71L441.306 539.214C442.671 539.139 444.019 539.06 445.351 538.976L445.397 539.725ZM254.583 538.393C255.91 538.502 257.256 538.606 258.619 538.704L258.512 540.197C257.143 540.099 255.793 539.995 254.46 539.885L254.583 538.393ZM453.539 539.885C452.206 539.995 450.856 540.099 449.487 540.197L449.435 539.452L449.381 538.704C450.744 538.606 452.09 538.502 453.417 538.393L453.539 539.885ZM246.515 537.633C247.838 537.774 249.181 537.908 250.542 538.036L250.402 539.526C249.035 539.398 247.686 539.265 246.355 539.123L246.515 537.633ZM461.644 539.123C460.313 539.265 458.964 539.398 457.597 539.526L457.458 538.036C458.819 537.908 460.162 537.774 461.485 537.633L461.644 539.123ZM238.499 536.657C239.813 536.838 241.147 537.011 242.501 537.175L242.32 538.661C240.959 538.496 239.618 538.323 238.295 538.141L238.499 536.657ZM469.704 538.141C468.382 538.323 467.04 538.496 465.679 538.661L465.499 537.175C466.853 537.011 468.187 536.838 469.501 536.657L469.704 538.141ZM230.534 535.414C231.839 535.644 233.164 535.864 234.51 536.073L234.279 537.554C232.924 537.343 231.589 537.122 230.273 536.891L230.534 535.414ZM477.726 536.891C476.41 537.122 475.075 537.343 473.72 537.554L473.49 536.073C474.836 535.864 476.161 535.644 477.466 535.414L477.726 536.891ZM222.625 533.838C223.918 534.128 225.232 534.406 226.567 534.672L226.421 535.406L226.422 535.407L226.354 535.751L226.275 536.141C224.928 535.873 223.603 535.592 222.297 535.299L222.421 534.749L222.625 533.838ZM485.702 535.299C484.396 535.592 483.071 535.873 481.724 536.141L481.433 534.672C482.768 534.406 484.082 534.128 485.375 533.838L485.702 535.299ZM214.829 531.863C216.102 532.225 217.396 532.573 218.711 532.905L218.343 534.356C217.014 534.02 215.705 533.671 214.418 533.305L214.829 531.863ZM493.581 533.305C492.294 533.671 490.985 534.02 489.656 534.356L489.289 532.905C490.604 532.573 491.898 532.225 493.171 531.863L493.581 533.305ZM207.187 529.417C208.432 529.863 209.698 530.292 210.985 530.703L210.528 532.131C209.225 531.714 207.943 531.281 206.681 530.828L207.187 529.417ZM501.318 530.828C500.056 531.281 498.774 531.714 497.471 532.131L497.015 530.703C498.302 530.292 499.568 529.863 500.813 529.417L501.318 530.828ZM199.752 526.431C200.962 526.973 202.191 527.494 203.44 527.995L202.882 529.387C201.614 528.878 200.367 528.348 199.139 527.798L199.752 526.431ZM508.86 527.798C507.632 528.348 506.385 528.878 505.117 529.387L504.56 527.995C505.809 527.494 507.038 526.973 508.248 526.431L508.86 527.798ZM192.595 522.858C193.757 523.502 194.936 524.122 196.134 524.72L195.799 525.39L195.8 525.391L195.597 525.798L195.465 526.061C194.248 525.453 193.05 524.823 191.868 524.169L192.595 522.858ZM516.131 524.169C514.949 524.823 513.751 525.454 512.534 526.061L511.866 524.72C513.064 524.122 514.243 523.502 515.405 522.858L516.131 524.169ZM185.775 518.691C186.329 519.06 186.886 519.423 187.446 519.783L188.29 520.319C188.572 520.496 188.855 520.672 189.14 520.846L188.356 522.124C187.779 521.771 187.205 521.412 186.636 521.046C186.069 520.682 185.505 520.311 184.944 519.938L185.775 518.691ZM523.055 519.938C522.494 520.311 521.931 520.682 521.364 521.046C520.794 521.412 520.219 521.77 519.642 522.124L518.86 520.846C519.429 520.498 519.993 520.143 520.554 519.783L521.392 519.24C521.67 519.058 521.948 518.875 522.225 518.691L523.055 519.938ZM179.263 514.07C180.324 514.873 181.397 515.66 182.483 516.431L181.616 517.651C180.518 516.872 179.431 516.076 178.358 515.265L179.263 514.07ZM529.641 515.265C528.568 516.076 527.481 516.872 526.383 517.651L525.517 516.431C526.603 515.66 527.676 514.873 528.737 514.07L529.641 515.265ZM173.045 509.06C174.055 509.926 175.078 510.777 176.115 511.612L175.174 512.779C174.125 511.934 173.091 511.072 172.069 510.196L173.045 509.06ZM535.93 510.196C534.908 511.072 533.874 511.934 532.825 512.779L531.885 511.612C532.922 510.777 533.945 509.926 534.955 509.06L535.93 510.196ZM167.146 503.679C168.101 504.605 169.07 505.517 170.054 506.414L169.044 507.52C168.049 506.612 167.067 505.691 166.101 504.754L167.146 503.679ZM541.898 504.754C540.932 505.691 539.95 506.612 538.955 507.52L537.946 506.414C538.93 505.517 539.899 504.605 540.854 503.679L541.898 504.754ZM161.586 497.946C162.483 498.93 163.395 499.899 164.321 500.854L163.245 501.898C162.308 500.932 161.387 499.95 160.479 498.955L161.586 497.946ZM547.52 498.955C546.612 499.95 545.691 500.932 544.754 501.898L543.679 500.854C544.605 499.899 545.517 498.93 546.414 497.946L547.52 498.955ZM156.388 491.885C157.223 492.922 158.074 493.945 158.94 494.955L157.803 495.93C156.927 494.908 156.065 493.874 155.22 492.825L156.388 491.885ZM552.779 492.825C551.934 493.874 551.072 494.908 550.196 495.93L549.06 494.955C549.926 493.945 550.777 492.922 551.612 491.885L552.779 492.825ZM151.569 485.517C152.34 486.603 153.127 487.676 153.93 488.737L152.734 489.641C151.923 488.568 151.127 487.481 150.348 486.383L150.424 486.329L151.569 485.517ZM557.576 486.329L557.651 486.383C556.872 487.481 556.076 488.568 555.265 489.641L554.07 488.737C554.873 487.676 555.66 486.603 556.431 485.517L557.576 486.329ZM147.154 478.86C147.502 479.429 147.856 479.993 148.217 480.554C148.577 481.114 148.941 481.671 149.309 482.225L148.061 483.055C147.688 482.494 147.318 481.931 146.954 481.364C146.588 480.794 146.229 480.219 145.875 479.642L147.154 478.86ZM562.124 479.643C561.771 480.22 561.412 480.794 561.046 481.364C560.682 481.931 560.311 482.494 559.938 483.055L558.691 482.225C559.06 481.671 559.423 481.114 559.783 480.554C560.143 479.993 560.498 479.429 560.846 478.86L562.124 479.643ZM143.28 471.866C143.878 473.064 144.498 474.243 145.142 475.405L143.83 476.131C143.176 474.949 142.545 473.751 141.938 472.534L143.28 471.866ZM566.061 472.534C565.454 473.751 564.823 474.949 564.169 476.131L562.858 475.405C563.502 474.243 564.122 473.064 564.72 471.866L566.061 472.534ZM140.005 464.56C140.506 465.809 141.027 467.038 141.569 468.248L140.201 468.86C139.651 467.632 139.121 466.385 138.612 465.117L140.005 464.56ZM569.387 465.117C568.878 466.385 568.348 467.632 567.798 468.86L566.431 468.248C566.973 467.038 567.494 465.809 567.995 464.56L569.387 465.117ZM137.297 457.015C137.708 458.302 138.137 459.568 138.583 460.813L137.171 461.318C136.718 460.056 136.285 458.774 135.868 457.471L137.297 457.015ZM572.131 457.471C571.714 458.774 571.281 460.056 570.828 461.318L569.417 460.813C569.863 459.568 570.292 458.302 570.703 457.015L572.131 457.471ZM213.5 314.75V328C213.5 358.212 213.504 380.72 215.83 398.025C218.151 415.287 222.758 427.147 231.806 436.194C240.853 445.242 252.713 449.849 269.975 452.17C287.28 454.496 309.788 454.5 340 454.5H353.25V314.75H213.5ZM354.75 314.75V454.5H368C398.212 454.5 420.72 454.496 438.025 452.17C455.287 449.849 467.147 445.242 476.194 436.194L476.615 435.768C485.385 426.774 489.885 415.017 492.17 398.025C494.496 380.72 494.5 358.212 494.5 328V314.75H354.75ZM135.095 449.289C135.427 450.604 135.775 451.898 136.137 453.171L135.414 453.376L135.415 453.377L134.694 453.581C134.328 452.294 133.979 450.985 133.643 449.656L135.095 449.289ZM574.356 449.656C574.02 450.985 573.671 452.294 573.305 453.581L572.585 453.377L571.863 453.171C572.225 451.898 572.573 450.604 572.905 449.289L574.356 449.656ZM133.328 441.433C133.594 442.768 133.872 444.082 134.162 445.375L132.7 445.702C132.407 444.396 132.126 443.071 131.858 441.724L133.328 441.433ZM576.141 441.724C575.873 443.071 575.592 444.396 575.299 445.702L573.838 445.375C574.128 444.082 574.406 442.768 574.672 441.433L576.141 441.724ZM131.927 433.49C132.136 434.836 132.356 436.161 132.586 437.466L131.108 437.726C130.877 436.41 130.656 435.075 130.445 433.72L131.186 433.605L131.927 433.49ZM577.554 433.72C577.343 435.075 577.122 436.41 576.891 437.726L575.414 437.466C575.644 436.161 575.864 434.836 576.073 433.49L577.554 433.72ZM130.825 425.499C130.989 426.853 131.162 428.187 131.343 429.501L130.599 429.603L130.6 429.604L129.858 429.704C129.676 428.382 129.503 427.04 129.338 425.679L130.825 425.499ZM578.661 425.679C578.496 427.04 578.323 428.382 578.141 429.704L577.4 429.604L576.657 429.501C576.838 428.187 577.011 426.853 577.175 425.499L578.661 425.679ZM129.964 417.458C130.092 418.819 130.226 420.162 130.367 421.485L128.876 421.644C128.734 420.313 128.601 418.964 128.473 417.597L129.964 417.458ZM579.526 417.597C579.398 418.964 579.265 420.313 579.123 421.644L577.633 421.485C577.774 420.162 577.908 418.819 578.036 417.458L579.526 417.597ZM129.296 409.381C129.394 410.744 129.498 412.09 129.607 413.417L128.114 413.539C128.004 412.206 127.9 410.856 127.802 409.487L128.548 409.435L129.296 409.381ZM579.452 409.435L580.197 409.487C580.099 410.856 579.995 412.206 579.885 413.539L578.393 413.417C578.502 412.09 578.606 410.744 578.704 409.381L579.452 409.435ZM128.786 401.306C128.861 402.671 128.94 404.019 129.024 405.351L128.275 405.397L127.528 405.443C127.444 404.108 127.364 402.756 127.289 401.387L128.786 401.306ZM580.71 401.387C580.635 402.756 580.555 404.108 580.471 405.443L579.725 405.397L578.976 405.351C579.06 404.019 579.139 402.671 579.214 401.306L580.71 401.387ZM128.578 397.244L127.081 397.314C127.017 395.979 126.958 394.629 126.901 393.262L128.398 393.201C128.455 394.565 128.515 395.913 128.578 397.244ZM581.098 393.262C581.041 394.629 580.982 395.979 580.918 397.314L579.422 397.244C579.485 395.913 579.545 394.565 579.602 393.201L581.098 393.262ZM128.244 389.157L126.745 389.209C126.697 387.866 126.653 386.509 126.611 385.136L128.11 385.091C128.152 386.462 128.197 387.817 128.244 389.157ZM580.639 385.113L581.388 385.135C581.346 386.508 581.302 387.866 581.254 389.209L579.756 389.157C579.803 387.817 579.848 386.462 579.89 385.091L580.639 385.113ZM127.996 381.037L126.497 381.075C126.462 379.739 126.429 378.388 126.399 377.023L127.899 376.99C127.929 378.354 127.962 379.703 127.996 381.037ZM581.6 377.023C581.57 378.388 581.537 379.739 581.502 381.075L580.004 381.037C580.039 379.703 580.071 378.354 580.101 376.99L581.6 377.023ZM127.817 372.914L126.317 372.94C126.293 371.604 126.271 370.255 126.25 368.892L127.749 368.869C127.77 370.231 127.793 371.58 127.817 372.914ZM581.749 368.892C581.728 370.255 581.706 371.604 581.682 372.94L580.183 372.914C580.207 371.58 580.23 370.231 580.251 368.869L581.749 368.892ZM127.692 364.81L126.195 364.828C126.178 363.482 126.161 362.123 126.146 360.751L127.646 360.736C127.66 362.107 127.675 363.465 127.692 364.81ZM581.853 360.751C581.838 362.123 581.821 363.482 581.804 364.828L580.308 364.81C580.325 363.465 580.34 362.107 580.354 360.736L581.853 360.751ZM127.608 356.693L126.858 356.699L126.11 356.704C126.099 355.354 126.087 353.992 126.078 352.616L127.578 352.607C127.587 353.982 127.597 355.344 127.608 356.693ZM581.921 352.616C581.912 353.992 581.9 355.354 581.889 356.704L581.142 356.699L580.392 356.693C580.403 355.344 580.413 353.982 580.422 352.607L581.921 352.616ZM127.555 348.568L126.057 348.575C126.05 347.228 126.042 345.869 126.037 344.498L127.536 344.493C127.541 345.864 127.548 347.222 127.555 348.568ZM581.962 344.498C581.957 345.869 581.949 347.228 581.942 348.575L580.445 348.568C580.452 347.222 580.459 345.864 580.464 344.493L581.962 344.498ZM127.523 340.44L126.024 340.444C126.021 339.099 126.017 337.743 126.015 336.375L127.514 336.373C127.516 337.74 127.52 339.096 127.523 340.44ZM581.984 336.375C581.982 337.743 581.978 339.099 581.975 340.444L580.477 340.44C580.48 339.096 580.484 337.74 580.486 336.373L581.984 336.375ZM127.507 332.312L126.008 332.312C126.006 330.969 126.005 329.615 126.004 328.249H127.503C127.504 329.614 127.505 330.968 127.507 332.312ZM581.991 332.312L580.493 332.312C580.495 330.968 580.496 329.614 580.497 328.249H581.995C581.994 329.615 581.993 330.969 581.991 332.312ZM127.501 324.184H126.003C126.002 322.84 126.002 321.487 126.002 320.122H127.5C127.5 321.487 127.5 322.84 127.501 324.184ZM581.997 324.184H580.499C580.5 322.84 580.5 321.487 580.5 320.122H581.998C581.998 321.487 581.998 322.84 581.997 324.184ZM353.25 1.5C264.236 1.50022 220.021 1.55804 184.604 14.3203C123.942 36.1799 76.1799 83.9419 54.3203 144.604C41.558 180.021 41.5002 224.236 41.5 313.25H126C126 312.813 126.001 312.378 126.001 311.943H127.5V313.25H212V300C212 240.131 212 209.963 230.31 191.187L230.745 190.745C248.319 173.172 275.934 172.074 329.035 172.005L340 172H353.25V87.5H351.943V86H353.25V1.5ZM340 173.5C309.788 173.5 287.28 173.504 269.975 175.83C252.983 178.115 241.226 182.615 232.232 191.385L231.806 191.806C222.758 200.853 218.151 212.713 215.83 229.975C213.504 247.28 213.5 269.788 213.5 300V313.25H353.25V173.5H340ZM354.75 313.25H494.5V300C494.5 269.788 494.496 247.28 492.17 229.975C489.849 212.713 485.242 200.853 476.194 191.806C467.147 182.758 455.287 178.151 438.025 175.83C420.72 173.504 398.212 173.5 368 173.5H354.75V313.25ZM354.75 172H368L378.965 172.005C432.066 172.074 459.681 173.172 477.255 190.745C496 209.49 496 239.66 496 300V313.25H666.5C666.5 224.236 666.442 180.021 653.68 144.604C631.82 83.9419 584.058 36.1799 523.396 14.3203C487.979 1.55804 443.764 1.50022 354.75 1.5V172ZM127.5 307.878H126.002C126.002 306.513 126.002 305.16 126.003 303.816H127.501C127.5 305.16 127.5 306.513 127.5 307.878ZM127.507 295.688C127.505 297.032 127.504 298.386 127.503 299.751L126.004 299.75C126.005 298.384 126.006 297.03 126.008 295.687L127.507 295.688ZM127.523 287.56C127.52 288.904 127.516 290.26 127.514 291.627L126.015 291.624C126.017 290.256 126.021 288.9 126.024 287.555L127.523 287.56ZM127.555 279.432C127.548 280.778 127.541 282.136 127.536 283.507L126.037 283.501C126.042 282.13 126.05 280.771 126.057 279.424L127.555 279.432ZM127.608 271.307C127.597 272.656 127.587 274.018 127.578 275.393L126.078 275.383C126.087 274.007 126.099 272.645 126.11 271.295L127.608 271.307ZM127.692 263.19C127.675 264.535 127.66 265.893 127.646 267.264L126.146 267.248C126.161 265.876 126.178 264.517 126.195 263.171L127.692 263.19ZM127.817 255.086C127.793 256.42 127.77 257.769 127.749 259.131L126.25 259.107C126.271 257.744 126.293 256.395 126.317 255.059L127.817 255.086ZM127.996 246.963C127.962 248.297 127.929 249.646 127.899 251.01L126.4 250.977L126.399 250.976C126.429 249.611 126.462 248.26 126.497 246.924L127.996 246.963ZM128.244 238.843C128.197 240.183 128.152 241.538 128.11 242.909L126.611 242.864C126.652 241.536 126.694 240.222 126.74 238.922L126.745 238.79L128.244 238.843ZM128.578 230.756C128.515 232.087 128.455 233.435 128.398 234.799L127.649 234.768L126.901 234.737C126.958 233.37 127.017 232.02 127.081 230.685L128.578 230.756ZM129.024 222.649C128.94 223.981 128.861 225.329 128.786 226.694L127.289 226.612C127.364 225.243 127.444 223.891 127.528 222.556L129.024 222.649ZM129.607 214.583C129.498 215.91 129.394 217.256 129.296 218.619L127.802 218.512C127.9 217.143 128.004 215.793 128.114 214.46L129.607 214.583ZM130.367 206.515C130.226 207.838 130.092 209.181 129.964 210.542L128.473 210.402C128.601 209.035 128.734 207.686 128.876 206.355L130.367 206.515ZM131.343 198.499C131.162 199.813 130.989 201.147 130.825 202.501L129.338 202.32C129.503 200.959 129.676 199.618 129.858 198.295L131.343 198.499ZM132.586 190.534C132.356 191.839 132.136 193.164 131.927 194.51L130.445 194.279C130.656 192.924 130.877 191.589 131.108 190.273L132.586 190.534ZM134.162 182.625C133.872 183.918 133.594 185.232 133.328 186.567L132.593 186.421L131.858 186.275C132.126 184.928 132.407 183.603 132.7 182.297L134.162 182.625ZM136.137 174.829C135.775 176.102 135.427 177.396 135.095 178.711L133.643 178.343C133.94 177.168 134.246 176.01 134.566 174.868L134.694 174.418L136.137 174.829ZM138.583 167.187C138.137 168.432 137.708 169.698 137.297 170.985L135.868 170.528C136.285 169.225 136.718 167.943 137.171 166.681L138.583 167.187ZM141.569 159.752C141.027 160.962 140.506 162.191 140.005 163.44L138.612 162.882C139.121 161.614 139.651 160.367 140.201 159.139L141.569 159.752ZM145.142 152.595C144.498 153.757 143.878 154.936 143.28 156.134L142.609 155.799L141.938 155.465C142.506 154.328 143.093 153.207 143.701 152.101L143.83 151.868L145.142 152.595ZM149.309 145.775C149.125 146.052 148.942 146.33 148.76 146.608L148.217 147.446C147.856 148.007 147.502 148.571 147.154 149.14L145.875 148.356C146.07 148.037 146.268 147.719 146.467 147.402L146.954 146.636C147.318 146.069 147.688 145.505 148.061 144.944L149.309 145.775ZM153.93 139.263C153.127 140.324 152.34 141.397 151.569 142.483L150.348 141.616C151.127 140.518 151.923 139.431 152.734 138.358L153.93 139.263ZM158.94 133.045C158.074 134.055 157.223 135.078 156.388 136.115L155.22 135.174C156.065 134.125 156.927 133.091 157.803 132.069L158.94 133.045ZM164.321 127.146C163.395 128.101 162.483 129.07 161.586 130.054L160.479 129.044C161.387 128.049 162.308 127.067 163.245 126.101L164.321 127.146ZM170.054 121.586C169.07 122.483 168.101 123.395 167.146 124.321L166.101 123.245C167.067 122.308 168.049 121.387 169.044 120.479L170.054 121.586ZM176.115 116.388C175.078 117.223 174.055 118.074 173.045 118.94L172.069 117.803C173.086 116.931 174.115 116.073 175.158 115.232L175.174 115.22L176.115 116.388ZM182.483 111.569C181.397 112.34 180.324 113.127 179.263 113.93L178.358 112.734C179.431 111.923 180.518 111.127 181.616 110.348L182.483 111.569ZM189.14 107.154C188.855 107.328 188.572 107.504 188.29 107.681L187.446 108.217C186.886 108.577 186.329 108.941 185.775 109.309L184.944 108.061C185.505 107.688 186.069 107.318 186.636 106.954C187.145 106.627 187.657 106.304 188.173 105.987L188.357 105.875L189.14 107.154ZM196.134 103.28C194.936 103.878 193.757 104.498 192.595 105.142L192.069 104.194L191.868 103.83C193.05 103.176 194.248 102.546 195.465 101.938L196.134 103.28ZM203.44 100.005C202.191 100.506 200.962 101.027 199.752 101.569L199.139 100.201C200.367 99.6507 201.614 99.1209 202.882 98.6123L203.44 100.005ZM210.985 97.2969C209.698 97.7083 208.432 98.1366 207.187 98.583L206.681 97.1709C207.943 96.7184 209.225 96.2847 210.528 95.8682L210.985 97.2969ZM218.711 95.0947C217.396 95.4273 216.102 95.7746 214.829 96.1367L214.418 94.6943C215.705 94.328 217.014 93.9787 218.343 93.6426L218.711 95.0947ZM226.422 92.5928L226.567 93.3281C225.232 93.5937 223.918 93.8719 222.625 94.1621L222.297 92.7002C223.603 92.4072 224.928 92.1263 226.275 91.8584L226.422 92.5928ZM234.51 91.9268C233.164 92.1363 231.839 92.3562 230.534 92.5859L230.273 91.1084C231.589 90.8768 232.924 90.6564 234.279 90.4453L234.51 91.9268ZM242.501 90.8252C241.147 90.9895 239.813 91.162 238.499 91.3428L238.295 89.8584C239.618 89.6765 240.959 89.5031 242.32 89.3379L242.501 90.8252ZM250.542 89.9639C249.181 90.0918 247.838 90.2257 246.515 90.3672L246.355 88.876C247.686 88.7338 249.035 88.6011 250.402 88.4727L250.542 89.9639ZM258.619 89.2959C257.256 89.3943 255.91 89.498 254.583 89.6074L254.46 88.1143C255.793 88.0044 257.143 87.9005 258.512 87.8018L258.619 89.2959ZM266.694 88.7861C265.329 88.8611 263.981 88.9405 262.649 89.0244L262.556 87.5283C263.891 87.4441 265.243 87.3642 266.612 87.2891L266.694 88.7861ZM274.769 87.6494L274.799 88.3984C273.435 88.4546 272.087 88.5147 270.756 88.5781L270.685 87.0811C272.02 87.0175 273.37 86.9577 274.737 86.9014L274.769 87.6494ZM282.887 87.3604L282.909 88.1104C281.538 88.152 280.183 88.1966 278.843 88.2441L278.79 86.7451C280.133 86.6975 281.49 86.6531 282.863 86.6113L282.887 87.3604ZM290.977 86.4004L291.01 87.8994C289.646 87.9294 288.297 87.9615 286.963 87.9961L286.924 86.4971C288.26 86.4624 289.611 86.4294 290.976 86.3994L290.977 86.4004ZM299.131 87.749C297.769 87.77 296.42 87.7928 295.086 87.8174L295.059 86.3174C296.395 86.2927 297.744 86.271 299.107 86.25L299.131 87.749ZM307.264 87.6455C305.893 87.6597 304.535 87.6753 303.19 87.6924L303.171 86.1953C304.517 86.1782 305.876 86.1607 307.248 86.1465L307.264 87.6455ZM315.393 87.5781C314.018 87.5871 312.656 87.5972 311.307 87.6084L311.295 86.1104C312.645 86.0991 314.007 86.0871 315.383 86.0781L315.393 87.5781ZM323.507 87.5361C322.136 87.5414 320.778 87.5479 319.432 87.5547L319.424 86.0566C320.771 86.0498 322.13 86.0423 323.501 86.0371L323.507 87.5361ZM331.627 87.5137C330.26 87.5163 328.904 87.5197 327.56 87.5234L327.555 86.0244C328.9 86.0207 330.256 86.0173 331.624 86.0146L331.627 87.5137ZM339.751 87.5029C338.386 87.5039 337.032 87.5052 335.688 87.5068L335.687 86.0078C337.03 86.0061 338.384 86.0049 339.75 86.0039L339.751 87.5029ZM347.878 87.5C346.513 87.5002 345.16 87.5005 343.816 87.501V86.0029C345.16 86.0024 346.513 86.0012 347.878 86.001V87.5Z" fill="url(#paint0_radial_25_21)" fill-opacity="0.25"/>
<defs>
<radialGradient id="paint0_radial_25_21" cx="0" cy="0" r="1" gradientUnits="userSpaceOnUse" gradientTransform="translate(354 314) rotate(90) scale(354 354)">
<stop offset="0.25" stop-color="white" stop-opacity="0"/>
<stop offset="0.5" stop-color="white" stop-opacity="0.4"/>
<stop offset="1" stop-color="white" stop-opacity="0.9"/>
</radialGradient>
</defs>
</svg>
