<svg width="628" height="628" viewBox="0 0 628 628" fill="none" xmlns="http://www.w3.org/2000/svg">
<path d="M314 0C403.386 0 448.08 -0.000105366 483.904 12.9092C544.987 34.9203 593.08 83.013 615.091 144.096C628 179.92 628 224.614 628 314C628 403.386 628 448.08 615.091 483.904C593.08 544.987 544.987 593.08 483.904 615.091C448.08 628 403.386 628 314 628C224.614 628 179.92 628 144.096 615.091C83.013 593.08 34.9203 544.987 12.9092 483.904C-0.000105366 448.08 0 403.386 0 314C0 224.614 -0.000105366 179.92 12.9092 144.096C34.9203 83.013 83.013 34.9203 144.096 12.9092C179.92 -0.000105366 224.614 0 314 0ZM314 24C224.546 24 179.819 24.0005 144.485 38.4688C96.367 58.1723 58.1723 96.367 38.4688 144.485C24.0005 179.819 24 224.546 24 314C24 403.454 24.0005 448.181 38.4688 483.515C58.1723 531.633 96.367 569.828 144.485 589.531C179.819 604 224.546 604 314 604C403.454 604 448.181 604 483.515 589.531C531.633 569.828 569.828 531.633 589.531 483.515C604 448.181 604 403.454 604 314C604 224.546 604 179.819 589.531 144.485C569.828 96.367 531.633 58.1723 483.515 38.4688C448.181 24.0005 403.454 24 314 24Z" fill="url(#paint0_linear_25_177)" fill-opacity="0.025"/>
<defs>
<linearGradient id="paint0_linear_25_177" x1="314" y1="0" x2="314" y2="628" gradientUnits="userSpaceOnUse">
<stop stop-color="white" stop-opacity="0"/>
<stop offset="1" stop-color="white"/>
</linearGradient>
</defs>
</svg>
