<svg width="626" height="626" viewBox="0 0 626 626" fill="none" xmlns="http://www.w3.org/2000/svg">
<mask id="mask0_25_183" style="mask-type:alpha" maskUnits="userSpaceOnUse" x="0" y="0" width="626" height="626">
<path d="M313 0.5C402.39 0.5 447.085 0.50015 482.884 13.4971C543.152 35.3781 590.622 82.8478 612.503 143.116C625.5 178.915 625.5 223.61 625.5 313C625.5 402.39 625.5 447.085 612.503 482.884C590.622 543.152 543.152 590.622 482.884 612.503C447.085 625.5 402.39 625.5 313 625.5C223.61 625.5 178.915 625.5 143.116 612.503C82.8478 590.622 35.3781 543.152 13.4971 482.884C0.50015 447.085 0.5 402.39 0.5 313C0.5 223.61 0.50015 178.915 13.4971 143.116C35.3781 82.8478 82.8478 35.3781 143.116 13.4971C178.915 0.50015 223.61 0.5 313 0.5ZM313.5 23C224.046 23 179.319 23.0005 143.985 37.4688C95.867 57.1723 57.6723 95.367 37.9688 143.485C23.5005 178.819 23.5 223.546 23.5 313C23.5 402.454 23.5005 447.181 37.9688 482.515C57.6723 530.633 95.867 568.828 143.985 588.531C179.319 603 224.046 603 313.5 603C402.954 603 447.681 603 483.015 588.531C531.133 568.828 569.328 530.633 589.031 482.515C603.5 447.181 603.5 402.454 603.5 313C603.5 223.546 603.5 178.819 589.031 143.485C569.328 95.367 531.133 57.1723 483.015 37.4688C447.681 23.0005 402.954 23 313.5 23Z" fill="white"/>
</mask>
<g mask="url(#mask0_25_183)">
<path d="M58.5004 567.937L568.437 58" stroke="white" stroke-opacity="0.25" stroke-width="1.5"/>
<path d="M58.5003 58L568.437 567.937" stroke="white" stroke-opacity="0.25" stroke-width="1.5"/>
</g>
</svg>
