<svg width="36" height="36" viewBox="0 0 36 36" fill="none" xmlns="http://www.w3.org/2000/svg">
<path d="M14.3789 25.227C13.9383 24.2673 12.1333 22.8661 11.6842 22.6639C10.6568 22.0897 9.46235 21.8596 8.28614 22.0095C7.10993 22.1594 6.01767 22.6808 5.17874 23.4929C4.33981 24.305 3.8011 25.3623 3.64615 26.501C3.4912 27.6396 3.72867 28.796 4.32173 29.7907C4.9148 30.7854 5.83031 31.5629 6.9263 32.0025C8.02229 32.4422 9.2375 32.5195 10.3835 32.2224C11.5295 31.9253 12.5422 31.2705 13.2646 30.3595C13.987 29.4485 14.3787 28.3321 14.3789 27.1836V8.46544C14.3789 7.99796 14.7028 7.59285 15.1588 7.48996L32.4 3.59998L32.3998 23.46M32.3998 23.46L32.4 25.4169C32.3997 26.5654 32.008 27.6817 31.2856 28.5928C30.5632 29.5038 29.5505 30.1586 28.4045 30.4557C27.2585 30.7528 26.0433 30.6755 24.9473 30.2358C23.8513 29.7961 22.9358 29.0187 22.3428 28.024C21.7497 27.0293 21.5122 25.8729 21.6672 24.7343C21.8221 23.5956 22.3608 22.5382 23.1998 21.7262C24.0387 20.9141 25.131 20.3927 26.3072 20.2428C27.4834 20.0929 28.6778 20.323 29.7052 20.8972C30.1543 21.0994 31.9589 22.5002 32.3998 23.46Z" stroke="white" stroke-width="2" stroke-linecap="round" stroke-linejoin="round"/>
</svg>
