<svg width="28" height="28" viewBox="0 0 28 28" fill="none" xmlns="http://www.w3.org/2000/svg">
<g opacity="0.25">
<path d="M13.9344 14H14M11.2869 9.09994C9.56528 10.0552 8.40005 11.8915 8.40005 14C8.40005 16.1084 9.56528 17.9447 11.2869 18.9M16.7132 9.09994C18.4348 10.0552 19.6 11.8915 19.6 14C19.6 16.1084 18.4348 17.9447 16.7132 18.9M8.40005 23.7016C5.05236 21.7651 2.80005 18.1456 2.80005 14C2.80005 9.8544 5.05236 6.23487 8.40005 4.29834M19.6 23.7016C22.9477 21.7651 25.2 18.1456 25.2 14C25.2 9.8544 22.9477 6.23487 19.6 4.29834" stroke="white" stroke-linecap="round"/>
</g>
</svg>
